<!DOCTYPE svg PUBLIC "-//W3C//DTD SVG 1.1//EN" "http://www.w3.org/Graphics/SVG/1.1/DTD/svg11.dtd">
<!-- Uploaded to: SVG Repo, www.svgrepo.com, Transformed by: SVG Repo Mixer Tools -->
<svg fill="#fd6330" width="800px" height="800px" viewBox="0 0 512 512" xmlns="http://www.w3.org/2000/svg">
<g id="SVGRepo_bgCarrier" stroke-width="0"/>
<g id="SVGRepo_tracerCarrier" stroke-linecap="round" stroke-linejoin="round"/>
<g id="SVGRepo_iconCarrier">
<title>ionicons-v5-c</title>
<path d="M30.71,229.47l188.87-113a30.54,30.54,0,0,1,31.09-.39,33.74,33.74,0,0,1,16.76,29.47V224.6L448.15,116.44a30.54,30.54,0,0,1,31.09-.39A33.74,33.74,0,0,1,496,145.52v221A33.73,33.73,0,0,1,479.24,396a30.54,30.54,0,0,1-31.09-.39L267.43,287.4v79.08A33.73,33.73,0,0,1,250.67,396a30.54,30.54,0,0,1-31.09-.39l-188.87-113a31.27,31.27,0,0,1,0-53Z"/>
</g>
</svg>