<!DOCTYPE svg PUBLIC "-//W3C//DTD SVG 1.1//EN" "http://www.w3.org/Graphics/SVG/1.1/DTD/svg11.dtd">
<!-- Uploaded to: SVG Repo, www.svgrepo.com, Transformed by: SVG Repo Mixer Tools -->
<svg width="800px" height="800px" viewBox="0 0 24 24" fill="none" xmlns="http://www.w3.org/2000/svg">
<g id="SVGRepo_bgCarrier" stroke-width="0"/>
<g id="SVGRepo_tracerCarrier" stroke-linecap="round" stroke-linejoin="round"/>
<g id="SVGRepo_iconCarrier">
<path d="M4.18 13.427A1 1 0 0 0 5 15h14a1 1 0 0 0 .82-1.573l-7-10a1 1 0 0 0-1.64 0l-7 10ZM4 19.2A1.8 1.8 0 0 0 5.8 21h12.4a1.8 1.8 0 0 0 1.8-1.8v-.4a1.8 1.8 0 0 0-1.8-1.8H5.8A1.8 1.8 0 0 0 4 18.8v.4Z" fill="#fd6330"/>
</g>
</svg>