<?xml version="1.0" encoding="UTF-8" standalone="no"?><!DOCTYPE svg PUBLIC "-//W3C//DTD SVG 1.1//EN" "http://www.w3.org/Graphics/SVG/1.1/DTD/svg11.dtd"><svg width="100%" height="100%" viewBox="0 0 3334 3334" version="1.1" xmlns="http://www.w3.org/2000/svg" xmlns:xlink="http://www.w3.org/1999/xlink" xml:space="preserve" xmlns:serif="http://www.serif.com/" style="fill-rule:evenodd;clip-rule:evenodd;stroke-linejoin:round;stroke-miterlimit:2;"><g id="SVGRepo_iconCarrier"><path d="M711.294,833.333l61.019,61.019c81.36,81.36 81.36,213.268 0,294.628c-81.36,81.36 -213.268,81.36 -294.628,0l-416.667,-416.667c-81.359,-81.36 -81.359,-213.268 0,-294.628l416.667,-416.667c81.36,-81.359 213.268,-81.359 294.628,0c81.36,81.36 81.36,213.268 0,294.628l-61.019,61.019l1788.706,0c421.889,0 763.889,342.004 763.889,763.889l0,347.222c0,115.056 -93.278,208.333 -208.333,208.333c-115.056,0 -208.333,-93.278 -208.333,-208.333l0,-347.222c0,-191.765 -155.458,-347.222 -347.222,-347.222l-1788.706,0Zm1910.747,1666.667l-61.028,-61.014c-81.347,-81.361 -81.347,-213.278 0,-294.639c81.361,-81.347 213.278,-81.347 294.639,0l416.667,416.667c81.347,81.361 81.347,213.278 0,294.639l-416.667,416.667c-81.361,81.347 -213.278,81.347 -294.639,0c-81.347,-81.361 -81.347,-213.278 0,-294.639l61.028,-61.014l-1788.708,0c-421.885,0 -763.889,-342 -763.889,-763.889l0,-347.222c0,-115.056 93.274,-208.333 208.333,-208.333c115.06,0 208.333,93.278 208.333,208.333l0,347.222c0,191.764 155.457,347.222 347.222,347.222l1788.708,0Z" style="fill:#fd6330;"/><g transform="matrix(2000,0,0,2000,1813.455657,2356.946411)"></g><text x="1119.878px" y="2356.946px" style="font-family:'MiriamCLM-Bold', 'Miriam CLM';font-weight:700;font-size:2000px;fill:#fd6330;">1</text></g></svg>