<?xml version="1.0" encoding="UTF-8" standalone="no"?><!DOCTYPE svg PUBLIC "-//W3C//DTD SVG 1.1//EN" "http://www.w3.org/Graphics/SVG/1.1/DTD/svg11.dtd"><svg width="100%" height="100%" viewBox="0 0 3334 3334" version="1.1" xmlns="http://www.w3.org/2000/svg" xmlns:xlink="http://www.w3.org/1999/xlink" xml:space="preserve" xmlns:serif="http://www.serif.com/" style="fill-rule:evenodd;clip-rule:evenodd;stroke-linejoin:round;stroke-miterlimit:2;"><g id="SVGRepo_iconCarrier"><path d="M2919.736,732.861c0,57.144 -47.023,104.167 -104.167,104.167l-888.216,0l907.031,1515.43c43.307,71.195 44.408,160.639 2.865,232.878c-44.271,78.125 -130.208,126.693 -223.503,126.693l-1888.021,0c-93.555,0 -179.232,-48.568 -223.503,-126.693c-41.509,-72.254 -40.384,-161.691 2.93,-232.878l906.966,-1515.43l-888.216,0c-57.144,0 -104.167,-47.023 -104.167,-104.167c0,-57.144 47.023,-104.167 104.167,-104.167l2291.667,-0c57.144,0 104.167,47.023 104.167,104.167Z" style="fill:#fd6330;fill-rule:nonzero;"/></g></svg>